<svg width="36" height="36" viewBox="0 0 36 36" fill="none" xmlns="http://www.w3.org/2000/svg">
<path d="M19.799 0.5C21.7678 0.50525 22.767 0.51575 23.6298 0.54025L23.9693 0.5525C24.3613 0.5665 24.748 0.584 25.2153 0.605C27.0773 0.6925 28.3478 0.9865 29.4625 1.41875C30.6175 1.86325 31.5905 2.46525 32.5635 3.4365C33.4534 4.31132 34.142 5.36953 34.5813 6.5375C35.0135 7.65225 35.3075 8.92275 35.395 10.7865C35.416 11.252 35.4335 11.6388 35.4475 12.0325L35.458 12.372C35.4843 13.233 35.4948 14.2323 35.4983 16.201L35.5 17.5065V19.799C35.5043 21.0755 35.4909 22.3519 35.4598 23.628L35.4493 23.9675C35.4353 24.3613 35.4178 24.748 35.3968 25.2135C35.3093 27.0773 35.0118 28.346 34.5813 29.4625C34.1432 30.6311 33.4545 31.6896 32.5635 32.5635C31.6885 33.4531 30.6303 34.1416 29.4625 34.5813C28.3478 35.0135 27.0773 35.3075 25.2153 35.395C24.8 35.4146 24.3847 35.4321 23.9693 35.4475L23.6298 35.458C22.767 35.4825 21.7678 35.4948 19.799 35.4983L18.4935 35.5H16.2028C14.9257 35.5044 13.6487 35.491 12.372 35.4598L12.0325 35.4493C11.6171 35.4335 11.2018 35.4154 10.7865 35.395C8.92453 35.3075 7.65403 35.0135 6.53753 34.5813C5.3697 34.1427 4.31191 33.454 3.43828 32.5635C2.54761 31.689 1.85843 30.6307 1.41878 29.4625C0.986533 28.3477 0.692533 27.0773 0.605033 25.2135C0.585536 24.7983 0.568036 24.3829 0.552533 23.9675L0.543783 23.628C0.511534 22.3519 0.49695 21.0755 0.500033 19.799V16.201C0.495149 14.9246 0.507984 13.6481 0.538533 12.372L0.550783 12.0325C0.564783 11.6388 0.582283 11.252 0.603283 10.7865C0.690783 8.92275 0.984783 7.654 1.41703 6.5375C1.85648 5.36833 2.54704 4.30979 3.44003 3.4365C4.31344 2.54658 5.37053 1.85798 6.53753 1.41875C7.65403 0.9865 8.92278 0.6925 10.7865 0.605C11.252 0.584 11.6405 0.5665 12.0325 0.5525L12.372 0.542C13.6481 0.510907 14.9246 0.497489 16.201 0.50175L19.799 0.5ZM18 9.25C15.6794 9.25 13.4538 10.1719 11.8128 11.8128C10.1719 13.4538 9.25003 15.6794 9.25003 18C9.25003 20.3206 10.1719 22.5462 11.8128 24.1872C13.4538 25.8281 15.6794 26.75 18 26.75C20.3207 26.75 22.5463 25.8281 24.1872 24.1872C25.8282 22.5462 26.75 20.3206 26.75 18C26.75 15.6794 25.8282 13.4538 24.1872 11.8128C22.5463 10.1719 20.3207 9.25 18 9.25ZM18 12.75C18.6895 12.7499 19.3722 12.8856 20.0092 13.1493C20.6462 13.413 21.225 13.7996 21.7126 14.2871C22.2002 14.7745 22.587 15.3532 22.8509 15.9901C23.1149 16.627 23.2508 17.3097 23.2509 17.9991C23.251 18.6886 23.1153 19.3713 22.8516 20.0083C22.5879 20.6453 22.2013 21.2241 21.7138 21.7117C21.2264 22.1993 20.6477 22.5861 20.0108 22.85C19.3739 23.114 18.6912 23.2499 18.0018 23.25C16.6094 23.25 15.274 22.6969 14.2895 21.7123C13.3049 20.7277 12.7518 19.3924 12.7518 18C12.7518 16.6076 13.3049 15.2723 14.2895 14.2877C15.274 13.3031 16.6094 12.75 18.0018 12.75M27.1893 6.625C26.6091 6.625 26.0527 6.85547 25.6425 7.2657C25.2323 7.67594 25.0018 8.23234 25.0018 8.8125C25.0018 9.39266 25.2323 9.94906 25.6425 10.3593C26.0527 10.7695 26.6091 11 27.1893 11C27.7694 11 28.3258 10.7695 28.7361 10.3593C29.1463 9.94906 29.3768 9.39266 29.3768 8.8125C29.3768 8.23234 29.1463 7.67594 28.7361 7.2657C28.3258 6.85547 27.7694 6.625 27.1893 6.625Z" fill="white"/>
</svg>
