<svg width="46" height="36" viewBox="0 0 46 36" fill="none" xmlns="http://www.w3.org/2000/svg">
<path d="M4.52408 0.236816C2.30064 0.236816 0.5 2.03961 0.5 4.2609V19.5524H26.2541V4.2609C26.2541 2.03746 24.4513 0.236816 22.2301 0.236816H4.52408ZM26.2541 22.7717H0.5V28.4054C0.5 30.6267 2.30279 32.4295 4.52408 32.4295H5.3289C5.3289 30.7219 6.00724 29.0842 7.2147 27.8768C8.42216 26.6693 10.0598 25.9909 11.7674 25.9909C13.475 25.9909 15.1127 26.6693 16.3202 27.8768C17.5276 29.0842 18.206 30.7219 18.206 32.4295H24.6445C25.0714 32.4295 25.4808 32.2599 25.7827 31.958C26.0845 31.6562 26.2541 31.2468 26.2541 30.8198V22.7717Z" fill="white"/>
<path d="M14.9866 32.4297C14.9866 31.5759 14.6475 30.7571 14.0437 30.1534C13.44 29.5496 12.6212 29.2105 11.7674 29.2105C10.9136 29.2105 10.0947 29.5496 9.491 30.1534C8.88727 30.7571 8.5481 31.5759 8.5481 32.4297C8.5481 33.2835 8.88727 34.1024 9.491 34.7061C10.0947 35.3098 10.9136 35.649 11.7674 35.649C12.6212 35.649 13.44 35.3098 14.0437 34.7061C14.6475 34.1024 14.9866 33.2835 14.9866 32.4297ZM31.083 5.06595C30.6561 5.06595 30.2466 5.23554 29.9448 5.5374C29.6429 5.83927 29.4733 6.24869 29.4733 6.67559V30.8201C29.4733 31.0068 29.5055 31.1849 29.5635 31.3523C29.831 29.7666 30.6822 28.3385 31.9496 27.3487C33.217 26.359 34.809 25.8794 36.4122 26.0042C38.0155 26.1291 39.5139 26.8494 40.6129 28.0234C41.7118 29.1974 42.3316 30.7402 42.3504 32.3482C44.1811 31.9726 45.6169 30.3415 45.4924 28.3069C45.0123 20.4484 42.2264 12.9057 37.4829 6.62193C37.1134 6.13604 36.6361 5.74259 36.0886 5.47257C35.5411 5.20256 34.9384 5.06337 34.328 5.06595H31.083Z" fill="white"/>
<path d="M39.1312 32.4297C39.1312 31.5759 38.792 30.7571 38.1883 30.1534C37.5845 29.5496 36.7657 29.2104 35.9119 29.2104C35.0581 29.2104 34.2393 29.5496 33.6355 30.1534C33.0318 30.7571 32.6926 31.5759 32.6926 32.4297C32.6926 33.2835 33.0318 34.1024 33.6355 34.7061C34.2393 35.3098 35.0581 35.649 35.9119 35.649C36.7657 35.649 37.5845 35.3098 38.1883 34.7061C38.792 34.1024 39.1312 33.2835 39.1312 32.4297Z" fill="white"/>
</svg>
