<svg width="21" height="16" viewBox="0 0 21 16" fill="none" xmlns="http://www.w3.org/2000/svg">
<path d="M18.5 0H2.5C1.4 0 0.51 0.9 0.51 2L0.5 14C0.5 15.1 1.4 16 2.5 16H18.5C19.6 16 20.5 15.1 20.5 14V2C20.5 0.9 19.6 0 18.5 0ZM18.1 4.25L11.03 8.67C10.71 8.87 10.29 8.87 9.97 8.67L2.9 4.25C2.79973 4.19371 2.71192 4.11766 2.64189 4.02645C2.57186 3.93525 2.52106 3.83078 2.49258 3.71937C2.46409 3.60796 2.4585 3.49194 2.47616 3.37831C2.49381 3.26468 2.53434 3.15581 2.59528 3.0583C2.65623 2.96079 2.73632 2.87666 2.83073 2.811C2.92513 2.74533 3.03187 2.69951 3.1445 2.6763C3.25712 2.65309 3.37328 2.65297 3.48595 2.67595C3.59863 2.69893 3.70546 2.74453 3.8 2.81L10.5 7L17.2 2.81C17.2945 2.74453 17.4014 2.69893 17.514 2.67595C17.6267 2.65297 17.7429 2.65309 17.8555 2.6763C17.9681 2.69951 18.0749 2.74533 18.1693 2.811C18.2637 2.87666 18.3438 2.96079 18.4047 3.0583C18.4657 3.15581 18.5062 3.26468 18.5238 3.37831C18.5415 3.49194 18.5359 3.60796 18.5074 3.71937C18.4789 3.83078 18.4281 3.93525 18.3581 4.02645C18.2881 4.11766 18.2003 4.19371 18.1 4.25Z" fill="#76B729"/>
</svg>
