<svg width="42" height="51" viewBox="0 0 42 51" fill="none" xmlns="http://www.w3.org/2000/svg">
<path d="M14.7126 2.48361C14.7126 0.21759 17.5036 -0.883973 19.0103 0.853369L21 3.15509L22.9897 0.855069C24.4964 -0.883973 27.2874 0.21759 27.2874 2.48361V5.59451C27.2874 6.84907 28.0281 7.98293 29.1997 8.50481C36.7142 11.7211 42 19.257 42 28.0338C42 38.3626 34.679 46.9813 24.9812 48.8581V48.8751C24.9812 50.048 24.0385 51 22.877 51H19.2409C18.0794 51 17.1367 50.048 17.1367 48.8751V48.8666C7.50445 46.9779 0 38.1484 0 28.0168C0 19.2349 5.29082 11.716 12.8071 8.50141C13.3692 8.25996 13.8492 7.85771 14.1878 7.34422C14.5264 6.83072 14.7088 6.22842 14.7126 5.61151V2.48361ZM18.0794 4.94683V5.60981C18.0758 6.89294 17.6999 8.14688 16.9979 9.21646C16.296 10.286 15.299 11.1243 14.1302 11.6276L14.1234 11.631C13.8137 11.7619 13.5107 11.903 13.2111 12.0526C9.91166 15.597 7.96232 21.132 7.96232 27.0801C7.96232 36.1068 12.4148 43.6596 18.3201 45.448C16.0543 42.0243 14.8473 34.3746 14.8473 27.0648C14.8473 20.673 15.689 14.8082 17.1535 11.0173L18.416 11.5103C17.0357 15.0972 16.2108 20.911 16.2108 27.0648C16.2108 32.2156 16.7663 37.0605 17.7932 40.6983C18.7224 44.0115 19.8132 45.4922 20.6381 45.8356C20.8855 45.8407 21.1347 45.8407 21.3804 45.8356C22.2036 45.4905 23.2944 44.0098 24.2236 40.6983C25.2337 37.0605 25.806 32.2326 25.806 27.0648C25.806 20.928 24.9812 15.1142 23.6008 11.5103L24.8633 11.0173C26.3279 14.8252 27.1695 20.673 27.1695 27.0648C27.1578 34.3746 25.9575 42.026 23.6951 45.448C29.6003 43.663 34.0545 36.1085 34.0545 27.0818C34.0545 21.1405 32.1102 15.614 28.8209 12.0679C28.5111 11.9129 28.1967 11.7672 27.8782 11.631L27.858 11.6225C26.6917 11.1142 25.6977 10.273 24.9982 9.20209C24.2988 8.13122 23.9242 6.87736 23.9206 5.59451V4.94683L22.8517 6.18099C22.6236 6.44664 22.3421 6.66016 22.0259 6.80733C21.7097 6.95451 21.366 7.03196 21.0179 7.03454C20.6697 7.03711 20.325 6.96474 20.0067 6.82226C19.6884 6.67977 19.4038 6.47044 19.1719 6.20819L19.1618 6.19629L18.0794 4.94683ZM9.54469 14.4886C7.60535 16.1565 6.04835 18.2302 4.98158 20.5662C3.91481 22.9021 3.3638 25.4444 3.36673 28.0168C3.36673 34.4715 7.03647 40.3244 12.3475 43.4523C11.7331 42.8199 11.1523 42.1161 10.6052 41.3443C7.89499 37.5195 6.41363 32.4536 6.41363 27.0818C6.41363 22.4443 7.54148 18.0262 9.54469 14.4886ZM29.437 43.6732C32.2204 42.1419 34.5436 39.8811 36.1619 37.1288C37.7803 34.3766 38.634 31.2347 38.6333 28.0338C38.6333 22.6347 36.2496 17.7916 32.4907 14.5243C34.4838 18.0568 35.6032 22.4596 35.6032 27.0818C35.6032 32.4536 34.1218 37.5195 31.4116 41.3443C30.8213 42.1768 30.1606 42.956 29.437 43.6732Z" fill="white"/>
</svg>
